<?xml version="1.0" encoding="UTF-8" standalone="no"?>
<svg
   viewBox="0 0 400 118"
   fill-rule="evenodd"
   clip-rule="evenodd"
   stroke-linejoin="round"
   stroke-miterlimit="2"
   version="1.1"
   id="svg4"
   sodipodi:docname="p5.jacdac.logo.svg"
   width="400"
   height="118"
   inkscape:version="1.1 (c68e22c387, 2021-05-23)"
   inkscape:export-filename="D:\gh\jacdac-docs\src\pages\clients\p5js\p5.jacdac.logo.png"
   inkscape:export-xdpi="96"
   inkscape:export-ydpi="96"
   xmlns:inkscape="http://www.inkscape.org/namespaces/inkscape"
   xmlns:sodipodi="http://sodipodi.sourceforge.net/DTD/sodipodi-0.dtd"
   xmlns="http://www.w3.org/2000/svg"
   xmlns:svg="http://www.w3.org/2000/svg">
  <defs
     id="defs8" />
  <sodipodi:namedview
     id="namedview6"
     pagecolor="#282828"
     bordercolor="#666666"
     borderopacity="1.0"
     inkscape:pageshadow="2"
     inkscape:pageopacity="0.36862745"
     inkscape:pagecheckerboard="0"
     showgrid="false"
     inkscape:zoom="2.2734375"
     inkscape:cx="-135.25773"
     inkscape:cy="170.00687"
     inkscape:window-width="3440"
     inkscape:window-height="1369"
     inkscape:window-x="-8"
     inkscape:window-y="-8"
     inkscape:window-maximized="1"
     inkscape:current-layer="svg4" />
  <rect
     style="fill:#1a1a1a;fill-opacity:1;stroke-width:0.862757"
     id="rect1239"
     width="400"
     height="118"
     x="0"
     y="0" />
  <path
     fill="#000000"
     d="m 379.42815,69.724845 h -96.12366 a 13.727457,13.727457 0 0 1 -13.92671,0.907124 13.072021,13.072021 0 0 1 -7.24126,-11.630062 c 0,-4.892176 2.79478,-9.37536 7.24126,-11.630061 a 13.727457,13.727457 0 0 1 13.92671,0.907124 h 96.12366 c 4.71914,0 8.55213,3.733365 8.55213,8.33715 v 4.771575 c 0,4.603785 -3.82775,8.33715 -8.55213,8.33715 z M 283.76067,59.001907 c 0,-2.11837 -0.85993,-4.1476 -2.39627,-5.647238 a 8.2899578,8.2899578 0 0 0 -5.78881,-2.338597 c -2.17081,0 -4.25248,0.838958 -5.78882,2.338597 a 7.8862091,7.8862091 0 0 0 -2.39627,5.647238 c 0,2.118371 0.85993,4.147601 2.39627,5.647239 1.53634,1.494395 3.61801,2.338597 5.78882,2.338597 2.1708,0 4.25247,-0.838958 5.78881,-2.338597 1.53634,-1.499638 2.39627,-3.528868 2.39627,-5.647239 z m 0.33034,31.460941 c 0,-2.11837 -0.87566,-4.147601 -2.43298,-5.647239 a 8.483967,8.483967 0 0 0 -5.87795,-2.338596 c -2.20226,0 -4.32063,0.838958 -5.87271,2.338596 a 7.8285307,7.8285307 0 0 0 -2.44346,5.647239 c 0,2.11837 0.87566,4.147601 2.43298,5.647239 1.55731,1.49439 3.67044,2.3386 5.87795,2.3386 2.20226,0 4.31539,-0.83896 5.87271,-2.3386 1.56256,-1.499638 2.43822,-3.528869 2.43822,-5.647239 z m 84.71907,10.722942 h -85.18574 a 14.115475,14.115475 0 0 1 -14.1312,0.90711 c -4.52514,-2.254693 -7.35662,-6.737873 -7.35662,-11.630052 0,-4.892176 2.83148,-9.37536 7.35662,-11.630061 a 14.115475,14.115475 0 0 1 14.1312,0.907124 h 85.18574 c 4.7978,0 8.68322,3.733365 8.68322,8.337149 v 4.771576 c 0,4.603781 -3.88542,8.337154 -8.68322,8.337154 z m 19.1702,-71.259035 c 0,4.603784 -3.82775,8.337149 -8.55213,8.337149 h -96.12366 a 13.727457,13.727457 0 0 1 -13.92671,0.907124 13.072021,13.072021 0 0 1 -7.24126,-11.630061 c 0,-4.892176 2.79478,-9.37536 7.24126,-11.630061 a 13.727457,13.727457 0 0 1 13.89525,0.880906 l 0.0315,0.02622 h 96.12366 c 4.71914,0 8.55213,3.733365 8.55213,8.337149 z M 283.76067,27.540967 c 0,-2.11837 -0.85993,-4.147601 -2.39627,-5.647239 a 8.2899578,8.2899578 0 0 0 -5.78881,-2.338597 c -2.17081,0 -4.25248,0.838959 -5.78882,2.338597 a 7.8862091,7.8862091 0 0 0 -2.39627,5.647239 c 0,2.11837 0.85993,4.147601 2.39627,5.647239 1.53634,1.494394 3.61801,2.338596 5.78882,2.338596 2.1708,0 4.25247,-0.838958 5.78881,-2.338596 1.53634,-1.499638 2.39627,-3.528869 2.39627,-5.647239 z"
     id="path913"
     style="fill:#747474;fill-opacity:1;stroke-width:5.24349" />
</svg>
