<svg viewBox="0 0 96 96" xmlns="http://www.w3.org/2000/svg" overflow="hidden"><g stroke="#000" stroke-width="1.333"><path d="M44.343 54.657a1 1 0 001.414-1.414l-7.107-7.107 7.486-7.485 7.107 7.106a1 1 0 001.414-1.414l-7.107-7.106 5.45-5.45-7.071-7.071c-5.569-5.58-14.512-5.884-20.446-.694l-2.166-2.239a25.127 25.127 0 00-17.97-7.62H2v2h3.347a23.12 23.12 0 0116.532 7.011l2.187 2.261c-5.221 5.934-4.936 14.903.65 20.494L31.787 53l5.449-5.45zM26.13 44.515c-5.077-5.077-5.077-13.308 0-18.385 5.077-5.077 13.308-5.077 18.385 0l5.657 5.657-18.385 18.385zM90.707 80a22.887 22.887 0 01-15.989-6.467l-2.577-2.492c5.179-5.939 4.875-14.873-.694-20.447l-7.071-7.071-21.213 21.214 7.071 7.071c5.587 5.597 14.565 5.881 20.495.649l2.6 2.514A24.879 24.879 0 0090.707 82H94v-2zm-39.059-9.607l-5.657-5.656 18.385-18.385 5.657 5.657c5.104 5.049 5.15 13.28.1 18.385-5.049 5.104-13.28 5.149-18.384.1a11.975 11.975 0 01-.101-.101z"/></g></svg>