<?xml version="1.0" encoding="UTF-8" standalone="no"?>
<svg
   xmlns:dc="http://purl.org/dc/elements/1.1/"
   xmlns:cc="http://creativecommons.org/ns#"
   xmlns:rdf="http://www.w3.org/1999/02/22-rdf-syntax-ns#"
   xmlns:svg="http://www.w3.org/2000/svg"
   xmlns="http://www.w3.org/2000/svg"
   xmlns:sodipodi="http://sodipodi.sourceforge.net/DTD/sodipodi-0.dtd"
   xmlns:inkscape="http://www.inkscape.org/namespaces/inkscape"
   viewBox="0 0 15.500001 42"
   version="1.1"
   id="svg1125"
   sodipodi:docname="led.svg"
   width="15.5"
   height="42"
   inkscape:version="1.0.1 (c497b03c, 2020-09-10)">
        <path fill="#999" d="M14.2 13V7.1C14.2 3.2 11 0 7.1 0 3.2 0 0 3.2 0 7.1v13.7c1.9 1.9 4.4 2.9 7.1 2.8 4.6 0 8.4-2.6 8.4-5.9v-1.5c0-1.2-.5-2.3-1.3-3.2z" opacity=".65" />
        <path fill="#8c8c8c" d="M2.8 17.5l-1.2-1.4h1L5 17.5v18.6c0 .3-.5.5-1.1.5-.6 0-1.1-.2-1.1-.5zm10.1 6.7c0-.7-1.1-1.3-2.1-1.8-.4-.2-1.2-.6-1.2-.9v-3.4l2.5-2h-.9l-3.7 2v3.5c0 .7.9 1.2 1.9 1.7.4.2 1.3.8 1.3 1.1v16.9c0 .4.5.7 1.1.7.6 0 1.1-.3 1.1-.7z" class="st1" />
        <path opacity={intensity} fill={active} d="M14.2 13V7.1C14.2 3.2 11 0 7.1 0 3.2 0 0 3.2 0 7.1v13.7c1.9 1.9 4.4 2.9 7.1 2.8 4.6 0 8.4-2.6 8.4-5.9v-1.5c0-1.2-.5-2.3-1.3-3.2z" />
        <path fill="#d1d1d1" d="M14.2 13v3.1c0 2.7-3.2 5-7.1 5-3.9 0-7.1-2.2-7.1-5v4.6c1.9 1.9 4.4 2.9 7.1 2.8 4.6 0 8.4-2.6 8.4-5.9v-1.5c0-1.1-.5-2.2-1.3-3.1z" opacity=".9" />
        <path fill="#e6e6e6" d="M14.2 13v3.1c0 2.7-3.2 5-7.1 5-3.9 0-7.1-2.2-7.1-5v4.6c1.9 1.9 4.4 2.9 7.1 2.8 4.6 0 8.4-2.6 8.4-5.9v-1.5c0-1.1-.5-2.2-1.3-3.1z" opacity=".7" />
        <path fill="#e6e6e6" d="M14.2 13v3.1c0 2.7-3.2 5-7.1 5-3.9 0-7.1-2.2-7.1-5v3.1c1.9 1.9 4.4 2.9 7.1 2.8 4.6 0 8.4-2.6 8.4-5.9 0-1.1-.5-2.2-1.3-3.1z" opacity=".25" />
        <ellipse cx="-7.2" cy="-16.1" fill="#e6e6e6" opacity=".25" rx="7.1" ry="5" transform="scale(-1)" />
        <ellipse cx="-7.2" cy="-16.1" fill="#e6e6e6" opacity=".25" rx="7.1" ry="5" transform="scale(-1)" />
        <path opacity=".61" fill="#fff" d="M7.2 22c-4.3 0-6.1-2-6.1-2l.7-.7S3.4 21 7.2 21c2.4.1 4.7-.9 6.3-2.7l.8.6C12.4 21 9.9 22.1 7.2 22z" />
        <path opacity=".61" fill="#fff" d="M2.6 3.2C1.5 4.3.9 5.8.9 7.4v10.3l1.9 1.5V8.8c-.9-2.8-.3-4.2.7-5.2-.3-.1-.6-.2-.9-.4zm7.3-1.6l-.3.9c1.5.7 2.6 2.1 2.8 3.7h1c-.3-2-1.6-3.7-3.5-4.6z" />
</svg>
