<?xml version="1.0" encoding="UTF-8" standalone="no"?>
<svg
   xmlns:shaper="http://www.shapertools.com/namespaces/shaper"
   xmlns:dc="http://purl.org/dc/elements/1.1/"
   xmlns:cc="http://creativecommons.org/ns#"
   xmlns:rdf="http://www.w3.org/1999/02/22-rdf-syntax-ns#"
   xmlns:svg="http://www.w3.org/2000/svg"
   xmlns="http://www.w3.org/2000/svg"
   xmlns:sodipodi="http://sodipodi.sourceforge.net/DTD/sodipodi-0.dtd"
   xmlns:inkscape="http://www.inkscape.org/namespaces/inkscape"
   enable-background="new 0 0 8.1338033 8.1338033"
   height="64"
   shaper:fusionaddin="version:1.5.0"
   version="1.1"
   viewBox="0 0 63.999998 64.000002"
   width="63.999996"
   x="0cm"
   xml:space="preserve"
   y="0cm"
   id="svg885"
   sodipodi:docname="pir.svg"
   inkscape:version="1.0.1 (c497b03c, 2020-09-10)"><metadata
     id="metadata891"><rdf:RDF><cc:Work
         rdf:about=""><dc:format>image/svg+xml</dc:format><dc:type
           rdf:resource="http://purl.org/dc/dcmitype/StillImage" /><dc:title></dc:title></cc:Work></rdf:RDF></metadata><defs
     id="defs889" /><sodipodi:namedview
     pagecolor="#ffffff"
     bordercolor="#666666"
     borderopacity="1"
     objecttolerance="10"
     gridtolerance="10"
     guidetolerance="10"
     inkscape:pageopacity="0"
     inkscape:pageshadow="2"
     inkscape:window-width="1536"
     inkscape:window-height="960"
     id="namedview887"
     showgrid="false"
     inkscape:zoom="10.34699"
     inkscape:cx="30.861161"
     inkscape:cy="32.54403"
     inkscape:window-x="0"
     inkscape:window-y="0"
     inkscape:window-maximized="0"
     inkscape:current-layer="svg885"
     fit-margin-top="0"
     fit-margin-left="0"
     fit-margin-right="0"
     fit-margin-bottom="0"
     units="px" /><path
     d="M 1.7066681,3.2803491 V 21.689129 a 32,32 0 0 0 0,20.62174 v 18.40878 a 1.9670994,1.9670994 0 0 0 1.9671,1.9671 H 22.926778 a 32,32 0 0 0 18.14644,0 h 19.25301 a 1.9670994,1.9670994 0 0 0 1.9671,-1.9671 v -18.40878 a 32,32 0 0 0 0,-20.62174 V 3.2803491 a 1.9670994,1.9670994 0 0 0 -1.9671,-1.9671 h -19.25301 a 32,32 0 0 0 -18.14644,0 H 3.6737681 a 1.9670994,1.9670994 0 0 0 -1.9671,1.9671 z"
     fill="#000000"
     shaper:cutDepth="0.014"
     shaper:pathType="exterior"
     vector-effect="non-scaling-stroke"
     id="path833"
     style="stroke-width:7.8684" /><path
     id="path835"
     style="stroke-width:7.8684;fill:#757575;fill-opacity:1"
     d="M 30.382812 3.3261719 A 28.719651 28.719651 0 0 0 16.455078 7.8515625 A 0.78683976 0.78683976 0 0 0 16.244141 8.9746094 L 20.183594 14.396484 A 0.78683976 0.78683976 0 0 0 21.234375 14.603516 A 20.457834 20.457834 0 0 1 30.484375 11.597656 A 0.78683976 0.78683976 0 0 0 31.212891 10.814453 L 31.212891 4.1113281 A 0.78683976 0.78683976 0 0 0 30.382812 3.3261719 z M 33.542969 3.3261719 A 0.78683976 0.78683976 0 0 0 32.787109 4.1113281 L 32.787109 10.814453 A 0.78683976 0.78683976 0 0 0 33.515625 11.597656 A 20.457834 20.457834 0 0 1 42.765625 14.603516 A 0.78683976 0.78683976 0 0 0 43.816406 14.396484 L 47.755859 8.9746094 A 0.78683976 0.78683976 0 0 0 47.544922 7.8515625 A 28.719651 28.719651 0 0 0 33.617188 3.3261719 A 0.78683976 0.78683976 0 0 0 33.542969 3.3261719 z M 14.330078 9.5761719 A 0.78683976 0.78683976 0 0 0 13.835938 9.7539062 A 28.719651 28.719651 0 0 0 5.2285156 21.599609 A 0.78683976 0.78683976 0 0 0 5.71875 22.632812 L 12.09375 24.705078 A 0.78683976 0.78683976 0 0 0 13.064453 24.253906 A 20.457834 20.457834 0 0 1 18.783203 16.384766 A 0.78683976 0.78683976 0 0 0 18.910156 15.322266 L 14.970703 9.9003906 A 0.78683976 0.78683976 0 0 0 14.330078 9.5761719 z M 49.681641 9.5761719 A 0.78683976 0.78683976 0 0 0 49.029297 9.9003906 L 45.089844 15.322266 A 0.78683976 0.78683976 0 0 0 45.216797 16.384766 A 20.457834 20.457834 0 0 1 50.935547 24.253906 A 0.78683976 0.78683976 0 0 0 51.90625 24.705078 L 58.28125 22.632812 A 0.78683976 0.78683976 0 0 0 58.771484 21.599609 A 28.719651 28.719651 0 0 0 50.164062 9.7539062 A 0.78683976 0.78683976 0 0 0 49.681641 9.5761719 z M 5.0136719 24.091797 A 0.78683976 0.78683976 0 0 0 4.2285156 24.677734 A 28.719651 28.719651 0 0 0 4.2285156 39.322266 A 0.78683976 0.78683976 0 0 0 5.2324219 39.869141 L 11.607422 37.798828 A 0.78683976 0.78683976 0 0 0 12.128906 36.863281 A 20.457834 20.457834 0 0 1 12.128906 27.136719 A 0.78683976 0.78683976 0 0 0 11.607422 26.201172 L 5.2324219 24.130859 A 0.78683976 0.78683976 0 0 0 5.0136719 24.091797 z M 58.998047 24.091797 A 0.78683976 0.78683976 0 0 0 58.767578 24.130859 L 52.392578 26.201172 A 0.78683976 0.78683976 0 0 0 51.871094 27.136719 A 20.457834 20.457834 0 0 1 51.871094 36.863281 A 0.78683976 0.78683976 0 0 0 52.392578 37.798828 L 58.767578 39.869141 A 0.78683976 0.78683976 0 0 0 59.771484 39.322266 A 28.719651 28.719651 0 0 0 59.771484 24.677734 A 0.78683976 0.78683976 0 0 0 58.998047 24.091797 z M 12.296875 39.257812 A 0.78683976 0.78683976 0 0 0 12.09375 39.294922 L 5.71875 41.367188 A 0.78683976 0.78683976 0 0 0 5.2285156 42.400391 A 28.719651 28.719651 0 0 0 13.835938 54.246094 A 0.78683976 0.78683976 0 0 0 14.970703 54.099609 L 18.910156 48.677734 A 0.78683976 0.78683976 0 0 0 18.783203 47.615234 A 20.457834 20.457834 0 0 1 13.064453 39.746094 A 0.78683976 0.78683976 0 0 0 12.296875 39.257812 z M 51.611328 39.257812 A 0.78683976 0.78683976 0 0 0 50.935547 39.746094 A 20.457834 20.457834 0 0 1 45.216797 47.615234 A 0.78683976 0.78683976 0 0 0 45.089844 48.677734 L 49.029297 54.099609 A 0.78683976 0.78683976 0 0 0 50.164062 54.246094 A 28.719651 28.719651 0 0 0 58.771484 42.400391 A 0.78683976 0.78683976 0 0 0 58.28125 41.367188 L 51.90625 39.294922 A 0.78683976 0.78683976 0 0 0 51.611328 39.257812 z M 20.808594 49.277344 A 0.78683976 0.78683976 0 0 0 20.183594 49.603516 L 16.244141 55.025391 A 0.78683976 0.78683976 0 0 0 16.455078 56.148438 A 28.719651 28.719651 0 0 0 30.382812 60.673828 A 0.78683976 0.78683976 0 0 0 31.212891 59.888672 L 31.212891 53.185547 A 0.78683976 0.78683976 0 0 0 30.484375 52.402344 A 20.457834 20.457834 0 0 1 21.234375 49.396484 A 0.78683976 0.78683976 0 0 0 20.808594 49.277344 z M 43.175781 49.277344 A 0.78683976 0.78683976 0 0 0 42.765625 49.396484 A 20.457834 20.457834 0 0 1 33.515625 52.402344 A 0.78683976 0.78683976 0 0 0 32.787109 53.185547 L 32.787109 59.888672 A 0.78683976 0.78683976 0 0 0 33.617188 60.673828 A 28.719651 28.719651 0 0 0 47.544922 56.148438 A 0.78683976 0.78683976 0 0 0 47.755859 55.025391 L 43.816406 49.603516 A 0.78683976 0.78683976 0 0 0 43.175781 49.277344 z " /><path
     id="path837"
     style="stroke-width:7.8684;fill:#777777;fill-opacity:1"
     d="M 33.568359 13.183594 A 0.78683976 0.78683976 0 0 0 32.787109 13.970703 L 32.787109 20.699219 A 0.78683976 0.78683976 0 0 0 33.464844 21.478516 A 10.622337 10.622337 0 0 1 36.998047 22.626953 A 0.78683976 0.78683976 0 0 0 38.005859 22.396484 L 41.960938 16.951172 A 0.78683976 0.78683976 0 0 0 41.728516 15.814453 A 18.884155 18.884155 0 0 0 33.642578 13.1875 A 0.78683976 0.78683976 0 0 0 33.568359 13.183594 z M 30.394531 13.185547 A 0.78683976 0.78683976 0 0 0 30.357422 13.1875 A 18.884155 18.884155 0 0 0 22.271484 15.814453 A 0.78683976 0.78683976 0 0 0 22.039062 16.951172 L 25.994141 22.396484 A 0.78683976 0.78683976 0 0 0 27.001953 22.626953 A 10.622337 10.622337 0 0 1 30.535156 21.478516 A 0.78683976 0.78683976 0 0 0 31.212891 20.699219 L 31.212891 13.970703 A 0.78683976 0.78683976 0 0 0 30.394531 13.185547 z M 20.125 17.552734 A 0.78683976 0.78683976 0 0 0 19.613281 17.746094 A 18.884155 18.884155 0 0 0 14.615234 24.625 A 0.78683976 0.78683976 0 0 0 15.097656 25.679688 L 21.496094 27.759766 A 0.78683976 0.78683976 0 0 0 22.447266 27.355469 A 10.622337 10.622337 0 0 1 24.630859 24.349609 A 0.78683976 0.78683976 0 0 0 24.720703 23.320312 L 20.765625 17.876953 A 0.78683976 0.78683976 0 0 0 20.125 17.552734 z M 43.835938 17.552734 A 0.78683976 0.78683976 0 0 0 43.234375 17.876953 L 39.279297 23.320312 A 0.78683976 0.78683976 0 0 0 39.369141 24.349609 A 10.622337 10.622337 0 0 1 41.552734 27.355469 A 0.78683976 0.78683976 0 0 0 42.503906 27.759766 L 48.902344 25.679688 A 0.78683976 0.78683976 0 0 0 49.384766 24.625 A 18.884155 18.884155 0 0 0 44.386719 17.746094 A 0.78683976 0.78683976 0 0 0 43.835938 17.552734 z M 14.390625 27.138672 A 0.78683976 0.78683976 0 0 0 13.601562 27.748047 A 18.884155 18.884155 0 0 0 13.601562 36.251953 A 0.78683976 0.78683976 0 0 0 14.611328 36.822266 L 21.009766 34.744141 A 0.78683976 0.78683976 0 0 0 21.541016 33.857422 A 10.622337 10.622337 0 0 1 21.541016 30.142578 A 0.78683976 0.78683976 0 0 0 21.009766 29.255859 L 14.611328 27.177734 A 0.78683976 0.78683976 0 0 0 14.390625 27.138672 z M 49.646484 27.138672 A 0.78683976 0.78683976 0 0 0 49.388672 27.177734 L 42.990234 29.255859 A 0.78683976 0.78683976 0 0 0 42.458984 30.142578 A 10.622337 10.622337 0 0 1 42.458984 33.857422 A 0.78683976 0.78683976 0 0 0 42.990234 34.744141 L 49.388672 36.822266 A 0.78683976 0.78683976 0 0 0 50.398438 36.251953 A 18.884155 18.884155 0 0 0 50.398438 27.748047 A 0.78683976 0.78683976 0 0 0 49.646484 27.138672 z M 21.724609 36.201172 A 0.78683976 0.78683976 0 0 0 21.496094 36.240234 L 15.097656 38.320312 A 0.78683976 0.78683976 0 0 0 14.615234 39.375 A 18.884155 18.884155 0 0 0 19.613281 46.253906 A 0.78683976 0.78683976 0 0 0 20.765625 46.123047 L 24.720703 40.679688 A 0.78683976 0.78683976 0 0 0 24.630859 39.650391 A 10.622337 10.622337 0 0 1 22.447266 36.644531 A 0.78683976 0.78683976 0 0 0 21.724609 36.201172 z M 42.283203 36.201172 A 0.78683976 0.78683976 0 0 0 41.552734 36.644531 A 10.622337 10.622337 0 0 1 39.369141 39.650391 A 0.78683976 0.78683976 0 0 0 39.279297 40.679688 L 43.234375 46.123047 A 0.78683976 0.78683976 0 0 0 44.386719 46.253906 A 18.884155 18.884155 0 0 0 49.384766 39.375 A 0.78683976 0.78683976 0 0 0 48.902344 38.320312 L 42.503906 36.240234 A 0.78683976 0.78683976 0 0 0 42.283203 36.201172 z M 26.644531 41.279297 A 0.78683976 0.78683976 0 0 0 25.994141 41.603516 L 22.039062 47.048828 A 0.78683976 0.78683976 0 0 0 22.271484 48.185547 A 18.884155 18.884155 0 0 0 30.357422 50.8125 A 0.78683976 0.78683976 0 0 0 31.212891 50.029297 L 31.212891 43.300781 A 0.78683976 0.78683976 0 0 0 30.535156 42.521484 A 10.622337 10.622337 0 0 1 27.001953 41.373047 A 0.78683976 0.78683976 0 0 0 26.644531 41.279297 z M 37.365234 41.279297 A 0.78683976 0.78683976 0 0 0 36.998047 41.373047 A 10.622337 10.622337 0 0 1 33.464844 42.521484 A 0.78683976 0.78683976 0 0 0 32.787109 43.300781 L 32.787109 50.029297 A 0.78683976 0.78683976 0 0 0 33.642578 50.8125 A 18.884155 18.884155 0 0 0 41.728516 48.185547 A 0.78683976 0.78683976 0 0 0 41.960938 47.048828 L 38.005859 41.603516 A 0.78683976 0.78683976 0 0 0 37.365234 41.279297 z " /><path
     d="m 22.951338,31.999999 a 9.04866,9.04866 0 1 0 18.09732,0 9.04866,9.04866 0 1 0 -18.09732,0 z"
     fill="#797979"
     fill-rule="nonzero"
     shaper:cutDepth="0.003"
     shaper:pathType="hogging"
     vector-effect="non-scaling-stroke"
     id="path875"
     style="stroke-width:7.8684" /><path
     id="path877"
     style="stroke-width:7.8684;fill:#767676;fill-opacity:1"
     d="M 5.640625 3.9882812 A 1.2589436 1.2589436 0 0 0 4.3828125 5.2480469 L 4.3828125 15.837891 A 32 32 0 0 1 16.529297 3.9882812 L 5.640625 3.9882812 z M 47.470703 3.9882812 A 32 32 0 0 1 59.617188 15.837891 L 59.617188 5.2480469 A 1.2589436 1.2589436 0 0 0 58.359375 3.9882812 L 47.470703 3.9882812 z M 4.3828125 48.162109 L 4.3828125 58.751953 A 1.2589436 1.2589436 0 0 0 5.640625 60.011719 L 16.529297 60.011719 A 32 32 0 0 1 4.3828125 48.162109 z M 59.617188 48.162109 A 32 32 0 0 1 47.470703 60.011719 L 58.359375 60.011719 A 1.2589436 1.2589436 0 0 0 59.617188 58.751953 L 59.617188 48.162109 z " /></svg>
