<?xml version="1.0" encoding="UTF-8" standalone="no"?>
<svg
   xmlns:dc="http://purl.org/dc/elements/1.1/"
   xmlns:cc="http://creativecommons.org/ns#"
   xmlns:rdf="http://www.w3.org/1999/02/22-rdf-syntax-ns#"
   xmlns:svg="http://www.w3.org/2000/svg"
   xmlns="http://www.w3.org/2000/svg"
   xmlns:sodipodi="http://sodipodi.sourceforge.net/DTD/sodipodi-0.dtd"
   xmlns:inkscape="http://www.inkscape.org/namespaces/inkscape"
   inkscape:version="1.0 (4035a4fb49, 2020-05-01)"
   height="111.40624"
   width="158.50197"
   sodipodi:docname="servo.svg"
   id="svg84"
   version="1.1"
   viewBox="0 0 158.50198 111.40624">
  <metadata
     id="metadata90">
    <rdf:RDF>
      <cc:Work
         rdf:about="">
        <dc:format>image/svg+xml</dc:format>
        <dc:type
           rdf:resource="http://purl.org/dc/dcmitype/StillImage" />
        <dc:title></dc:title>
      </cc:Work>
    </rdf:RDF>
  </metadata>
  <defs
     id="defs88" />
  <sodipodi:namedview
     inkscape:document-rotation="0"
     inkscape:current-layer="svg84"
     inkscape:window-maximized="0"
     inkscape:window-y="0"
     inkscape:window-x="0"
     inkscape:cy="72.028409"
     inkscape:cx="132.30124"
     inkscape:zoom="3.0530426"
     fit-margin-bottom="0"
     fit-margin-right="0"
     fit-margin-left="0"
     fit-margin-top="0"
     showgrid="false"
     id="namedview86"
     inkscape:window-height="960"
     inkscape:window-width="1536"
     inkscape:pageshadow="2"
     inkscape:pageopacity="0"
     guidetolerance="10"
     gridtolerance="10"
     objecttolerance="10"
     borderopacity="1"
     bordercolor="#666666"
     pagecolor="#ffffff" />
  <path
     style="stroke-linecap:round;stroke-linejoin:round"
     d="M 158.50196,10.687456 H 0 v 89.750414 h 158.50196 z"
     stroke-width="1.00704"
     fill="#303030"
     id="path8212" />
  <path
     style="stroke-linecap:round;stroke-linejoin:round"
     d="m 125.54494,55.641056 c 0,-24.9936 -20.2608,-45.256 -45.254403,-45.256 -17.8816,0.016 -34.076797,9.4456 -41.327997,25.7904 -2.6544,0.024 -4.192,0.076 -6.3504,0.0704 -11.1576,0 -20.2032,9.0456 -20.2032,20.2032 0,11.1576 9.0456,20.2032 20.2032,20.2032 2.3888,-0.0048 4.3536,-0.332 6.9968,-0.256 7.56,15.589602 23.355997,24.484814 40.681597,24.500014 24.992003,0 45.254403,-20.264014 45.254403,-45.256014 z"
     stroke-width="5.28"
     fill="#424242"
     id="crankbase" />
  <path
     d="m 93.7819,55.623032 c -0.03201,-3.809031 -0.189263,-6.403487 -0.351563,-7.023437 h -0.002 c -0.9296,-3.5576 -6.621769,-6.730469 -14.792969,-6.730469 -8.1712,0 -14.649322,3.016869 -14.794922,6.730469 -0.2512,6.4192 -4.049049,62.795445 13.560547,62.806645 14.30845,0.008 16.519566,-39.277407 16.38086,-55.783208 z m -8.050782,0.08008 a 7.1775999,7.1775999 0 0 1 0,0.01172 7.1775999,7.1775999 0 0 1 -7.177734,7.175778 7.1775999,7.1775999 0 0 1 -7.177734,-7.175781 7.1775999,7.1775999 0 0 1 7.177734,-7.177734 7.1775999,7.1775999 0 0 1 7.177734,7.166015 z"
     style="stroke-width:0.8;stroke-linecap:round;stroke-linejoin:round"
     id="arm" />
  <path
     d="m 93.7819,55.623032 c -0.03201,-3.809031 -0.189263,-6.403487 -0.351563,-7.023437 h -0.002 c -0.9296,-3.5576 -6.621769,-6.730469 -14.792969,-6.730469 -8.1712,0 -14.649322,3.016869 -14.794922,6.730469 -0.2512,6.4192 -4.049049,62.795445 13.560547,62.806645 14.30845,0.008 16.519566,-39.277407 16.38086,-55.783208 z m -8.050782,0.08008 a 7.1775999,7.1775999 0 0 1 0,0.01172 7.1775999,7.1775999 0 0 1 -7.177734,7.175778 7.1775999,7.1775999 0 0 1 -7.177734,-7.175781 7.1775999,7.1775999 0 0 1 7.177734,-7.177734 7.1775999,7.1775999 0 0 1 7.177734,7.166015 z"
     style="opacity:0;stroke-width:0.8;stroke-linecap:round;stroke-linejoin:round"
     id="arm-5" />
  <text
     id="text975"
     y="36.687592"
     x="51.138763"
     style="font-style:normal;font-weight:normal;font-size:24px;line-height:1.25;font-family:sans-serif;fill:#000000;fill-opacity:1;stroke:none"
     xml:space="preserve"><tspan
       style="font-size:24px"
       y="36.687592"
       x="51.138763"
       id="tspan973"
       sodipodi:role="line">180`</tspan></text>
</svg>
