<?xml version="1.0" encoding="UTF-8" standalone="no"?>
<svg
   xmlns:shaper="http://www.shapertools.com/namespaces/shaper"
   xmlns:dc="http://purl.org/dc/elements/1.1/"
   xmlns:cc="http://creativecommons.org/ns#"
   xmlns:rdf="http://www.w3.org/1999/02/22-rdf-syntax-ns#"
   xmlns:svg="http://www.w3.org/2000/svg"
   xmlns="http://www.w3.org/2000/svg"
   xmlns:sodipodi="http://sodipodi.sourceforge.net/DTD/sodipodi-0.dtd"
   xmlns:inkscape="http://www.inkscape.org/namespaces/inkscape"
   enable-background="new 0 0 9.4880566 4.6228611"
   height="9.48806cm"
   shaper:fusionaddin="version:1.5.0"
   version="1.1"
   viewBox="0 0 5.0002601 9.4880604"
   width="5.0002599cm"
   x="0cm"
   xml:space="preserve"
   y="0cm"
   id="svg895"
   sodipodi:docname="soilmoisture.svg"
   inkscape:version="1.0.1 (c497b03c, 2020-09-10)"><metadata
     id="metadata901"><rdf:RDF><cc:Work
         rdf:about=""><dc:format>image/svg+xml</dc:format><dc:type
           rdf:resource="http://purl.org/dc/dcmitype/StillImage" /><dc:title></dc:title></cc:Work></rdf:RDF></metadata><defs
     id="defs899" /><sodipodi:namedview
     pagecolor="#ffffff"
     bordercolor="#666666"
     borderopacity="1"
     objecttolerance="10"
     gridtolerance="10"
     guidetolerance="10"
     inkscape:pageopacity="0"
     inkscape:pageshadow="2"
     inkscape:window-width="1536"
     inkscape:window-height="960"
     id="namedview897"
     showgrid="false"
     fit-margin-top="0"
     fit-margin-left="0"
     fit-margin-right="0"
     fit-margin-bottom="0"
     inkscape:zoom="2.405854"
     inkscape:cx="127.9702"
     inkscape:cy="333.74875"
     inkscape:window-x="0"
     inkscape:window-y="0"
     inkscape:window-maximized="0"
     inkscape:current-layer="svg895"
     units="px" /><path
     d="M 4.8115587,7.9968111 V 0.5 a 0.5,0.5 0 0 0 -0.5,-0.5 H 0.68869757 a 0.5,0.5 0 0 0 -0.5,0.5 v 7.4968111 l 0.5032953,1.4912455 H 1.1580072 L 1.6613025,7.9968111 V 3.3728183 A 0.7922242,0.7922242 0 0 1 2.5001281,2.581966 0.7922242,0.7922242 0 0 1 3.3389537,3.3728183 v 4.6239928 l 0.5032954,1.4912455 h 0.4660142 z"
     fill="#000000"
     shaper:cutDepth="0.0035"
     shaper:pathType="exterior"
     vector-effect="non-scaling-stroke"
     id="path833" /><path
     d="m 4.0752562,8.5478183 a 0.075,0.075 0 1 0 0,-0.15 0.075,0.075 0 1 0 0,0.15 z"
     fill="#ffffff"
     shaper:cutDepth="0.0035"
     shaper:pathType="interior"
     stroke="#000000"
     vector-effect="non-scaling-stroke"
     id="path835" /><path
     d="m 4.4252562,7.2811517 a 0.075,0.075 0 1 0 0,-0.15 0.075,0.075 0 1 0 0,0.15 z"
     fill="#ffffff"
     shaper:cutDepth="0.0035"
     shaper:pathType="interior"
     stroke="#000000"
     vector-effect="non-scaling-stroke"
     id="path837" /><path
     d="m 4.4252562,5.9478183 a 0.075,0.075 0 1 0 0,-0.15 0.075,0.075 0 1 0 0,0.15 z"
     fill="#ffffff"
     shaper:cutDepth="0.0035"
     shaper:pathType="interior"
     stroke="#000000"
     vector-effect="non-scaling-stroke"
     id="path839" /><path
     d="m 3.7252562,4.614485 a 0.075,0.075 0 1 0 0,-0.15 0.075,0.075 0 1 0 0,0.15 z"
     fill="#ffffff"
     shaper:cutDepth="0.0035"
     shaper:pathType="interior"
     stroke="#000000"
     vector-effect="non-scaling-stroke"
     id="path841" /><path
     d="m 3.7252562,3.9478183 a 0.075,0.075 0 1 0 0,-0.15 0.075,0.075 0 1 0 0,0.15 z"
     fill="#ffffff"
     shaper:cutDepth="0.0035"
     shaper:pathType="interior"
     stroke="#000000"
     vector-effect="non-scaling-stroke"
     id="path843" /><path
     d="m 3.7252562,5.2811517 a 0.075,0.075 0 1 0 0,-0.15 0.075,0.075 0 1 0 0,0.15 z"
     fill="#ffffff"
     shaper:cutDepth="0.0035"
     shaper:pathType="interior"
     stroke="#000000"
     vector-effect="non-scaling-stroke"
     id="path845" /><path
     d="m 4.4252562,6.614485 a 0.075,0.075 0 1 0 0,-0.15 0.075,0.075 0 1 0 0,0.15 z"
     fill="#ffffff"
     shaper:cutDepth="0.0035"
     shaper:pathType="interior"
     stroke="#000000"
     vector-effect="non-scaling-stroke"
     id="path847" /><path
     d="m 4.4252562,7.9478183 a 0.075,0.075 0 1 0 0,-0.15 0.075,0.075 0 1 0 0,0.15 z"
     fill="#ffffff"
     shaper:cutDepth="0.0035"
     shaper:pathType="interior"
     stroke="#000000"
     vector-effect="non-scaling-stroke"
     id="path849" /><path
     d="m 3.7252562,7.2811517 a 0.075,0.075 0 1 0 0,-0.15 0.075,0.075 0 1 0 0,0.15 z"
     fill="#ffffff"
     shaper:cutDepth="0.0035"
     shaper:pathType="interior"
     stroke="#000000"
     vector-effect="non-scaling-stroke"
     id="path851" /><path
     d="m 3.7252562,5.9478183 a 0.075,0.075 0 1 0 0,-0.15 0.075,0.075 0 1 0 0,0.15 z"
     fill="#ffffff"
     shaper:cutDepth="0.0035"
     shaper:pathType="interior"
     stroke="#000000"
     vector-effect="non-scaling-stroke"
     id="path853" /><path
     d="m 4.4252562,4.614485 a 0.075,0.075 0 1 0 0,-0.15 0.075,0.075 0 1 0 0,0.15 z"
     fill="#ffffff"
     shaper:cutDepth="0.0035"
     shaper:pathType="interior"
     stroke="#000000"
     vector-effect="non-scaling-stroke"
     id="path855" /><path
     d="m 4.4252562,3.9478183 a 0.075,0.075 0 1 0 0,-0.15 0.075,0.075 0 1 0 0,0.15 z"
     fill="#ffffff"
     shaper:cutDepth="0.0035"
     shaper:pathType="interior"
     stroke="#000000"
     vector-effect="non-scaling-stroke"
     id="path857" /><path
     d="m 4.4252562,5.2811517 a 0.075,0.075 0 1 0 0,-0.15 0.075,0.075 0 1 0 0,0.15 z"
     fill="#ffffff"
     shaper:cutDepth="0.0035"
     shaper:pathType="interior"
     stroke="#000000"
     vector-effect="non-scaling-stroke"
     id="path859" /><path
     d="m 3.7252562,6.614485 a 0.075,0.075 0 1 0 0,-0.15 0.075,0.075 0 1 0 0,0.15 z"
     fill="#ffffff"
     shaper:cutDepth="0.0035"
     shaper:pathType="interior"
     stroke="#000000"
     vector-effect="non-scaling-stroke"
     id="path861" /><path
     d="m 3.7252562,7.9478183 a 0.075,0.075 0 1 0 0,-0.15 0.075,0.075 0 1 0 0,0.15 z"
     fill="#ffffff"
     shaper:cutDepth="0.0035"
     shaper:pathType="interior"
     stroke="#000000"
     vector-effect="non-scaling-stroke"
     id="path863" /><path
     d="m 0.92499997,8.5478183 a 0.075,0.075 0 1 0 0,-0.15 0.075,0.075 0 1 0 0,0.15 z"
     fill="#ffffff"
     shaper:cutDepth="0.0035"
     shaper:pathType="interior"
     stroke="#000000"
     vector-effect="non-scaling-stroke"
     id="path865" /><path
     d="m 0.57499997,7.2811517 a 0.075,0.075 0 1 0 0,-0.15 0.075,0.075 0 1 0 0,0.15 z"
     fill="#ffffff"
     shaper:cutDepth="0.0035"
     shaper:pathType="interior"
     stroke="#000000"
     vector-effect="non-scaling-stroke"
     id="path867" /><path
     d="m 0.57499997,5.9478183 a 0.075,0.075 0 1 0 0,-0.15 0.075,0.075 0 1 0 0,0.15 z"
     fill="#ffffff"
     shaper:cutDepth="0.0035"
     shaper:pathType="interior"
     stroke="#000000"
     vector-effect="non-scaling-stroke"
     id="path869" /><path
     d="m 1.275,4.614485 a 0.075,0.075 0 1 0 0,-0.15 0.075,0.075 0 1 0 0,0.15 z"
     fill="#ffffff"
     shaper:cutDepth="0.0035"
     shaper:pathType="interior"
     stroke="#000000"
     vector-effect="non-scaling-stroke"
     id="path871" /><path
     d="m 1.275,3.9478183 a 0.075,0.075 0 1 0 0,-0.15 0.075,0.075 0 1 0 0,0.15 z"
     fill="#ffffff"
     shaper:cutDepth="0.0035"
     shaper:pathType="interior"
     stroke="#000000"
     vector-effect="non-scaling-stroke"
     id="path873" /><path
     d="m 1.275,5.2811517 a 0.075,0.075 0 1 0 0,-0.15 0.075,0.075 0 1 0 0,0.15 z"
     fill="#ffffff"
     shaper:cutDepth="0.0035"
     shaper:pathType="interior"
     stroke="#000000"
     vector-effect="non-scaling-stroke"
     id="path875" /><path
     d="m 0.57499997,6.614485 a 0.075,0.075 0 1 0 0,-0.15 0.075,0.075 0 1 0 0,0.15 z"
     fill="#ffffff"
     shaper:cutDepth="0.0035"
     shaper:pathType="interior"
     stroke="#000000"
     vector-effect="non-scaling-stroke"
     id="path877" /><path
     d="m 0.57499997,7.9478183 a 0.075,0.075 0 1 0 0,-0.15 0.075,0.075 0 1 0 0,0.15 z"
     fill="#ffffff"
     shaper:cutDepth="0.0035"
     shaper:pathType="interior"
     stroke="#000000"
     vector-effect="non-scaling-stroke"
     id="path879" /><path
     d="m 1.275,7.2811517 a 0.075,0.075 0 1 0 0,-0.15 0.075,0.075 0 1 0 0,0.15 z"
     fill="#ffffff"
     shaper:cutDepth="0.0035"
     shaper:pathType="interior"
     stroke="#000000"
     vector-effect="non-scaling-stroke"
     id="path881" /><path
     d="m 1.275,5.9478183 a 0.075,0.075 0 1 0 0,-0.15 0.075,0.075 0 1 0 0,0.15 z"
     fill="#ffffff"
     shaper:cutDepth="0.0035"
     shaper:pathType="interior"
     stroke="#000000"
     vector-effect="non-scaling-stroke"
     id="path883" /><path
     d="m 0.57499997,4.614485 a 0.075,0.075 0 1 0 0,-0.15 0.075,0.075 0 1 0 0,0.15 z"
     fill="#ffffff"
     shaper:cutDepth="0.0035"
     shaper:pathType="interior"
     stroke="#000000"
     vector-effect="non-scaling-stroke"
     id="path885" /><path
     d="m 0.57499997,3.9478183 a 0.075,0.075 0 1 0 0,-0.15 0.075,0.075 0 1 0 0,0.15 z"
     fill="#ffffff"
     shaper:cutDepth="0.0035"
     shaper:pathType="interior"
     stroke="#000000"
     vector-effect="non-scaling-stroke"
     id="path887" /><path
     d="m 0.57499997,5.2811517 a 0.075,0.075 0 1 0 0,-0.15 0.075,0.075 0 1 0 0,0.15 z"
     fill="#ffffff"
     shaper:cutDepth="0.0035"
     shaper:pathType="interior"
     stroke="#000000"
     vector-effect="non-scaling-stroke"
     id="path889" /><path
     d="m 1.275,6.614485 a 0.075,0.075 0 1 0 0,-0.15 0.075,0.075 0 1 0 0,0.15 z"
     fill="#ffffff"
     shaper:cutDepth="0.0035"
     shaper:pathType="interior"
     stroke="#000000"
     vector-effect="non-scaling-stroke"
     id="path891" /><path
     d="m 1.275,7.9478183 a 0.075,0.075 0 1 0 0,-0.15 0.075,0.075 0 1 0 0,0.15 z"
     fill="#ffffff"
     shaper:cutDepth="0.0035"
     shaper:pathType="interior"
     stroke="#000000"
     vector-effect="non-scaling-stroke"
     id="path893" /><text
     xml:space="preserve"
     style="font-style:normal;font-weight:normal;font-size:1.05833px;line-height:1.25;font-family:sans-serif;fill:#ffffff;fill-opacity:1;stroke:none;stroke-width:0.0264583"
     x="1.5968269"
     y="1.76809"
     id="text905"><tspan
       sodipodi:role="line"
       id="tspan903"
       x="1.5968269"
       y="1.76809"
       style="fill:#ffffff;stroke-width:0.0264583">0%</tspan></text><path
     style="fill:none;stroke:#000000;stroke-width:0.0264583px;stroke-linecap:butt;stroke-linejoin:miter;stroke-opacity:1"
     d="M 2.5001281,3.2381985 V 7.9689"
     id="path969" /></svg>
