<?xml version="1.0" encoding="UTF-8" standalone="no"?>
<svg
   xmlns:shaper="http://www.shapertools.com/namespaces/shaper"
   xmlns:dc="http://purl.org/dc/elements/1.1/"
   xmlns:cc="http://creativecommons.org/ns#"
   xmlns:rdf="http://www.w3.org/1999/02/22-rdf-syntax-ns#"
   xmlns:svg="http://www.w3.org/2000/svg"
   xmlns="http://www.w3.org/2000/svg"
   xmlns:sodipodi="http://sodipodi.sourceforge.net/DTD/sodipodi-0.dtd"
   xmlns:inkscape="http://www.inkscape.org/namespaces/inkscape"
   enable-background="new 0 0 0.8891902 0.4443789"
   height="0.63499999cm"
   shaper:fusionaddin="version:1.5.0"
   version="1.1"
   viewBox="0 0 12.000437 24"
   width="0.31751156cm"
   x="0cm"
   xml:space="preserve"
   y="0cm"
   id="svg998"
   sodipodi:docname="temperature.svg"
   inkscape:version="1.0.1 (c497b03c, 2020-09-10)"><metadata
     id="metadata1004"><rdf:RDF><cc:Work
         rdf:about=""><dc:format>image/svg+xml</dc:format><dc:type
           rdf:resource="http://purl.org/dc/dcmitype/StillImage" /><dc:title></dc:title></cc:Work></rdf:RDF></metadata><defs
     id="defs1002" /><sodipodi:namedview
     pagecolor="#ffffff"
     bordercolor="#666666"
     borderopacity="1"
     objecttolerance="10"
     gridtolerance="10"
     guidetolerance="10"
     inkscape:pageopacity="0"
     inkscape:pageshadow="2"
     inkscape:window-width="1536"
     inkscape:window-height="960"
     id="namedview1000"
     showgrid="false"
     fit-margin-top="0"
     fit-margin-left="0"
     fit-margin-right="0"
     fit-margin-bottom="0"
     inkscape:zoom="7.7520343"
     inkscape:cx="54.932244"
     inkscape:cy="32.253579"
     inkscape:window-x="0"
     inkscape:window-y="0"
     inkscape:window-maximized="0"
     inkscape:current-layer="svg998" /><path
     d="m 11.365408,14.761203 a 0.63502481,0.63476514 0 0 0 -1e-6,-1.269528 l -1.350192,5e-6 a 0.6350256,0.63476593 0 0 0 -4e-6,1.269529 z"
     fill="#000000"
     shaper:cutDepth="0"
     shaper:pathType="exterior"
     vector-effect="non-scaling-stroke"
     id="path982"
     style="stroke-width:26.9983" /><path
     d="m 11.365407,12.061924 a 0.63502481,0.63476514 0 0 0 0,-1.269527 l -1.350191,4e-6 a 0.6350256,0.63476593 0 0 0 -5e-6,1.26953 z"
     fill="#000000"
     shaper:cutDepth="0"
     shaper:pathType="exterior"
     vector-effect="non-scaling-stroke"
     id="path984"
     style="stroke-width:26.9983" /><path
     d="m 11.365408,9.3626463 a 0.63502766,0.634768 0 0 0 2e-6,-1.269536 h -1.350192 a 0.63502481,0.63476514 0 0 0 0,1.269527 z"
     fill="#000000"
     shaper:cutDepth="0"
     shaper:pathType="exterior"
     vector-effect="non-scaling-stroke"
     id="path986"
     style="stroke-width:26.9983" /><path
     d="m 11.365408,6.6633663 a 0.63502481,0.63476514 0 0 0 2e-6,-1.2695254 l -1.350198,7e-7 a 0.63502481,0.63476514 0 0 0 0,1.2695277 z"
     fill="#000000"
     shaper:cutDepth="0"
     shaper:pathType="exterior"
     vector-effect="non-scaling-stroke"
     id="path988"
     style="stroke-width:26.9983" /><path
     d="m 11.365408,3.9640869 a 0.63502481,0.63476514 0 0 0 -1e-6,-1.2695265 l -1.350189,4.5e-6 a 0.63502481,0.63476514 0 0 0 5e-6,1.269528 z"
     fill="#000000"
     shaper:cutDepth="0"
     shaper:pathType="exterior"
     vector-effect="non-scaling-stroke"
     id="path990"
     style="stroke-width:26.9983" /><path
     d="M 4.0392167,3.2609258 V 17.466777 a 1.9789649,1.9781558 0 1 0 1.2843564,-0.004 l -1.5e-6,-14.2018312 a 0.64217811,0.64191553 0 0 0 -1.2843549,-1.6e-6 z"
     fill="#000000"
     shaper:cutDepth="0"
     shaper:pathType="exterior"
     vector-effect="non-scaling-stroke"
     id="path992"
     style="stroke-width:26.9983" /><path
     id="path994"
     style="stroke-width:26.9983"
     d="M 4.6989654,6.1217356e-5 A 3.3024819,3.3011315 0 0 0 1.3763714,3.3003729 V 16.025962 a 4.6675793,4.6656707 0 1 0 6.6047193,0.02232 V 3.3003729 A 3.3024819,3.3011315 0 0 0 4.6989654,6.1217356e-5 Z M 4.6515191,1.3028894 A 2.0091525,2.008331 0 0 1 6.6930782,3.3115322 V 16.681562 a 3.3536893,3.3523179 0 1 1 -4.017534,-0.02651 V 3.3115329 A 2.0091525,2.008331 0 0 1 4.6515191,1.3028894 Z" /></svg>
